<?xml version="1.0" standalone="no"?>
<!DOCTYPE svg PUBLIC "-//W3C//DTD SVG 20010904//EN"
 "http://www.w3.org/TR/2001/REC-SVG-20010904/DTD/svg10.dtd">
<svg version="1.0" xmlns="http://www.w3.org/2000/svg"
 width="500.000000pt" height="500.000000pt" viewBox="0 0 500.000000 500.000000"
 preserveAspectRatio="xMidYMid meet">

<g transform="translate(0.000000,500.000000) scale(0.100000,-0.100000)"
fill="#000000" stroke="none">
<path d="M2250 4725 c-142 -17 -207 -30 -355 -70 -652 -179 -1206 -670 -1463
-1297 -113 -275 -172 -572 -172 -854 1 -766 383 -1466 1030 -1887 291 -189
621 -304 981 -342 176 -19 287 -19 459 0 430 46 825 206 1164 472 97 77 299
281 373 378 362 477 523 1044 458 1616 -79 708 -477 1323 -1093 1690 -404 241
-914 349 -1382 294z m532 -101 c243 -33 432 -91 653 -199 242 -118 406 -237
601 -437 172 -176 279 -328 389 -553 86 -175 130 -304 181 -533 44 -198 44
-606 0 -804 -56 -250 -111 -407 -210 -594 -214 -404 -551 -730 -961 -929 -300
-146 -598 -215 -931 -215 -150 0 -325 16 -426 39 -142 33 -191 46 -282 77
-300 104 -584 284 -813 516 -176 179 -284 325 -386 526 -164 319 -237 624
-237 982 0 487 161 954 459 1330 69 87 239 259 328 332 232 190 547 347 838
418 239 59 561 77 797 44z"/>
<path d="M3553 2873 c-27 -10 0 -63 32 -63 23 0 30 42 9 57 -19 14 -22 14 -41
6z"/>
<path d="M673 2846 c-166 -54 -248 -214 -197 -385 21 -73 98 -151 177 -180
175 -64 348 30 394 214 15 60 15 70 0 130 -26 104 -82 170 -181 213 -45 20
-145 24 -193 8z m-51 -157 l3 -21 27 21 c37 30 91 28 121 -4 l23 -26 24 26
c16 17 34 25 56 25 77 0 94 -31 94 -173 0 -100 1 -105 23 -111 36 -10 3 -23
-64 -25 -60 -1 -75 10 -39 29 18 10 20 21 20 104 0 78 -3 98 -19 117 l-20 24
-38 -20 -38 -20 -3 -80 c-4 -97 2 -122 28 -130 39 -13 19 -20 -55 -21 -71 -1
-99 11 -55 23 19 5 20 12 18 116 -3 129 -12 143 -72 114 l-36 -17 0 -100 c0
-97 1 -101 25 -112 13 -6 22 -14 20 -18 -4 -6 -124 -6 -155 0 -3 0 7 8 23 16
27 15 27 15 27 124 l0 110 -25 0 c-35 0 -31 17 8 34 48 21 75 20 79 -5z"/>
<path d="M3382 2793 c-1 -7 -18 -31 -38 -53 -33 -36 -34 -40 -15 -40 20 0 21
-4 21 -123 0 -107 2 -126 18 -140 25 -22 44 -21 76 4 30 24 29 37 -2 18 -17
-10 -23 -10 -36 0 -13 11 -16 36 -16 127 l0 114 35 0 c19 0 35 5 35 10 0 6
-15 10 -34 10 -34 0 -35 1 -39 43 -2 23 -4 36 -5 30z"/>
<path d="M1235 2721 c-11 -5 -29 -18 -39 -30 -25 -28 -36 -27 -36 4 0 28 -4
29 -50 13 -31 -10 -32 -12 -12 -19 22 -8 22 -12 22 -190 0 -156 -2 -185 -17
-201 -15 -17 -14 -18 43 -18 56 0 57 1 36 16 -19 13 -22 24 -22 80 0 59 9 79
25 54 3 -5 26 -10 50 -10 104 0 165 125 118 241 -11 30 -25 45 -49 55 -38 16
-41 16 -69 5z m37 -42 c28 -15 48 -69 48 -133 0 -44 -5 -60 -26 -85 -30 -36
-70 -41 -105 -12 -20 16 -24 30 -27 96 -5 84 7 121 43 136 28 11 43 11 67 -2z"/>
<path d="M1500 2708 c-66 -45 -89 -140 -53 -215 36 -76 134 -97 196 -43 46 40
60 78 55 145 -5 62 -31 98 -85 121 -46 20 -75 17 -113 -8z m84 -2 c43 -18 66
-74 66 -160 0 -53 -4 -67 -25 -90 -65 -70 -144 7 -145 142 0 57 3 67 29 93 34
34 32 33 75 15z"/>
<path d="M2325 2716 c-77 -34 -106 -134 -66 -223 42 -92 161 -100 206 -13 21
41 19 42 -15 8 -27 -26 -36 -30 -67 -25 -65 11 -103 67 -103 152 0 56 32 95
79 95 28 0 61 -22 61 -40 0 -5 3 -15 6 -24 5 -14 -4 -16 -66 -16 -48 0 -69 -3
-65 -11 5 -7 40 -9 96 -7 84 3 89 4 89 25 0 34 -49 81 -90 88 -20 3 -48 -1
-65 -9z"/>
<path d="M2645 2699 l-35 -31 0 27 c0 26 -2 27 -32 21 -40 -8 -47 -15 -25 -27
15 -9 17 -26 17 -125 0 -100 -2 -116 -17 -122 -13 -4 -4 -9 27 -13 53 -7 85 0
52 12 -21 8 -22 15 -22 108 0 99 0 99 31 125 33 28 51 33 47 14 -4 -18 31 -22
38 -4 7 19 -12 46 -32 46 -7 0 -29 -14 -49 -31z"/>
<path d="M1764 2701 c10 -11 39 -76 65 -146 26 -69 51 -126 56 -126 4 0 26 40
48 90 23 50 44 88 47 84 4 -5 22 -47 40 -95 19 -49 37 -88 41 -88 4 0 9 10 12
23 12 49 90 243 104 260 15 16 14 17 -17 17 -26 0 -30 -3 -21 -14 9 -10 4 -32
-19 -95 -16 -45 -36 -94 -45 -109 -13 -25 -14 -25 -15 -5 0 12 -14 58 -31 104
-26 66 -30 86 -20 101 10 17 7 18 -39 18 l-51 0 20 -21 c33 -35 33 -62 1 -133
-17 -36 -34 -66 -39 -66 -13 0 -74 179 -68 201 5 17 0 19 -40 19 -45 0 -46 -1
-29 -19z"/>
<path d="M2823 2704 c-33 -14 -47 -29 -17 -17 27 10 34 -17 34 -129 0 -91 -3
-108 -17 -117 -14 -8 -5 -10 37 -10 42 0 51 2 38 10 -15 8 -18 25 -18 107 0
63 4 102 12 110 9 9 9 12 0 12 -7 0 -12 11 -12 25 0 28 -10 30 -57 9z"/>
<path d="M2922 2708 c-14 -14 -16 -32 -2 -23 5 3 18 0 28 -6 25 -15 54 -4 50
18 -4 22 -57 30 -76 11z"/>
<path d="M3062 2697 c-27 -29 -30 -70 -4 -65 9 2 19 14 20 28 5 36 20 50 53
50 31 0 59 -31 59 -67 0 -18 -13 -29 -62 -51 -75 -35 -101 -61 -101 -104 0
-60 66 -87 116 -48 14 11 30 20 35 20 5 0 12 -9 15 -20 3 -11 12 -20 21 -20
21 0 66 29 66 42 0 6 -6 5 -15 -2 -28 -23 -35 0 -35 111 0 134 -9 149 -93 149
-43 0 -58 -5 -75 -23z m128 -157 c0 -56 -2 -60 -30 -75 -16 -8 -36 -15 -44
-15 -42 0 -62 73 -28 102 22 20 74 47 90 48 8 0 12 -18 12 -60z"/>
<path d="M3533 2705 c-18 -8 -33 -17 -33 -20 0 -3 5 -3 10 0 6 4 17 1 25 -5
21 -18 21 -212 0 -233 -19 -19 -3 -25 45 -17 23 3 31 8 23 13 -9 6 -13 46 -13
143 0 146 1 144 -57 119z"/>
<path d="M3708 2708 c-30 -10 -38 -28 -13 -28 12 0 15 -20 15 -119 0 -105 -2
-120 -17 -124 -10 -3 7 -5 37 -6 42 -1 51 2 42 11 -8 8 -12 47 -12 108 0 105
6 117 61 139 20 7 32 6 45 -4 16 -11 20 -30 22 -121 4 -95 2 -109 -14 -121
-15 -11 -11 -13 37 -13 41 1 50 3 37 11 -15 8 -18 26 -18 117 0 66 -5 117 -13
132 -18 36 -68 39 -116 6 -46 -32 -49 -32 -43 -1 5 28 -5 30 -50 13z"/>
<path d="M4071 2694 c-27 -22 -31 -32 -31 -74 0 -43 4 -51 30 -70 47 -34 98
-36 140 -8 33 23 35 27 35 81 0 56 1 57 28 57 45 0 30 17 -20 23 -27 4 -61 9
-78 13 l-30 7 29 -24 c39 -35 49 -116 17 -148 -46 -46 -101 -13 -109 68 -4 44
-1 55 18 76 31 33 10 32 -29 -1z"/>
<path d="M4370 2688 c-11 -18 -20 -40 -20 -48 0 -28 30 -60 81 -85 27 -14 56
-36 65 -50 15 -23 15 -27 0 -50 -31 -47 -104 -25 -132 39 l-13 31 -1 -46 c0
-46 0 -46 38 -53 101 -16 152 8 152 73 0 44 -21 67 -97 105 -60 30 -80 69 -48
93 39 28 91 14 111 -31 l13 -31 1 40 0 40 -65 3 c-64 3 -65 3 -85 -30z"/>
<path d="M4054 2495 c-14 -22 -15 -30 -4 -50 11 -20 9 -27 -14 -58 -32 -42
-32 -51 0 -76 84 -66 254 -11 254 82 0 53 -26 67 -126 67 -85 0 -102 9 -88 45
9 24 -4 17 -22 -10z m209 -87 c25 -13 18 -47 -16 -72 -23 -17 -42 -21 -92 -19
-76 1 -105 15 -105 48 0 48 27 61 115 57 44 -2 88 -9 98 -14z"/>
<path d="M2172 2165 c0 -16 2 -22 5 -12 2 9 2 23 0 30 -3 6 -5 -1 -5 -18z"/>
<path d="M2848 2183 c6 -2 18 -2 25 0 6 3 1 5 -13 5 -14 0 -19 -2 -12 -5z"/>
<path d="M2462 2150 c0 -19 2 -27 5 -17 2 9 2 25 0 35 -3 9 -5 1 -5 -18z"/>
<path d="M3406 2171 c-4 -7 -5 -15 -2 -18 9 -9 19 4 14 18 -4 11 -6 11 -12 0z"/>
<path d="M3442 2160 c0 -14 2 -19 5 -12 2 6 2 18 0 25 -3 6 -5 1 -5 -13z"/>
<path d="M3681 2164 c0 -11 3 -14 6 -6 3 7 2 16 -1 19 -3 4 -6 -2 -5 -13z"/>
<path d="M2430 2150 c6 -11 13 -20 16 -20 2 0 0 9 -6 20 -6 11 -13 20 -16 20
-2 0 0 -9 6 -20z"/>
<path d="M2335 2150 c3 -5 8 -10 11 -10 2 0 4 5 4 10 0 6 -5 10 -11 10 -5 0
-7 -4 -4 -10z"/>
</g>
</svg>
